<?xml version="1.0" encoding="UTF-8"?>
<svg version="1.1" xmlns="http://www.w3.org/2000/svg" width="500" height="500">
<path d="M0 0 C165 0 330 0 500 0 C500 165 500 330 500 500 C335 500 170 500 0 500 C0 335 0 170 0 0 Z " fill="#FFFEFE" transform="translate(0,0)"/>
<path d="M0 0 C2.30793537 0.00316156 4.61458473 -0.02041527 6.92236328 -0.0456543 C20.7554232 -0.10549702 33.65491072 2.20065943 46.94189453 6.06567383 C47.8278833 6.32316406 48.71387207 6.5806543 49.62670898 6.84594727 C90.43734008 19.09759361 122.88798022 47.43929489 143.41650391 84.42163086 C148.66912694 94.22539446 152.52601271 104.5922396 155.44189453 115.31567383 C155.77060547 116.42040039 156.09931641 117.52512695 156.43798828 118.66333008 C168.14043979 159.42901282 160.12544693 202.03033811 140.08642578 238.72192383 C132.97605296 251.33465146 123.79245795 262.2238745 113.44189453 272.31567383 C112.85666016 272.94602539 112.27142578 273.57637695 111.66845703 274.22583008 C92.7269288 294.18837005 67.30545763 305.3237699 41.44189453 313.31567383 C40.37841797 313.65211914 40.37841797 313.65211914 39.29345703 313.99536133 C37.34971742 314.54707781 35.43014201 314.9525719 33.44189453 315.31567383 C31.94916016 315.59217773 31.94916016 315.59217773 30.42626953 315.87426758 C5.11756438 319.77826997 -22.23053314 318.61236035 -46.55810547 310.31567383 C-47.17959473 310.10571777 -47.80108398 309.89576172 -48.44140625 309.67944336 C-75.84556859 300.29949518 -101.21784987 284.01124067 -119.55810547 261.31567383 C-120.30447266 260.41848633 -121.05083984 259.52129883 -121.81982422 258.59692383 C-136.5900471 240.23269068 -146.42924287 219.01067 -152.55810547 196.31567383 C-152.89841797 195.07172852 -153.23873047 193.8277832 -153.58935547 192.54614258 C-159.13148311 170.02161806 -158.29029652 144.62079689 -152.55810547 122.31567383 C-152.25259766 121.04844482 -152.25259766 121.04844482 -151.94091797 119.75561523 C-147.58128489 101.78894837 -140.44159236 84.37077561 -129.55810547 69.31567383 C-128.45402344 67.78813477 -128.45402344 67.78813477 -127.32763672 66.22973633 C-114.55286124 48.95898404 -99.61156945 34.94558739 -81.55810547 23.31567383 C-80.97544922 22.94023438 -80.39279297 22.56479492 -79.79248047 22.17797852 C-66.98585587 14.07659158 -52.71802211 8.58018521 -38.18310547 4.44067383 C-37.18778809 4.1541394 -37.18778809 4.1541394 -36.17236328 3.86181641 C-24.26642548 0.67736798 -12.25460839 -0.03493922 0 0 Z " fill="#FE5757" transform="translate(247.55810546875,71.684326171875)"/>
<path d="M0 0 C0.68964844 0.04640625 1.37929687 0.0928125 2.08984375 0.140625 C4.06678327 0.26614497 6.04642347 0.390625 8.02734375 0.390625 C11.02734375 0.390625 14.02734375 0.390625 17.02734375 0.390625 C17.12644215 5.42596736 17.19891955 10.46073842 17.24707031 15.49682617 C17.2671488 17.20884086 17.29441767 18.92078728 17.32910156 20.63256836 C17.37778776 23.09766508 17.40034948 25.5618529 17.41796875 28.02734375 C17.43861389 28.78899338 17.45925903 29.55064301 17.48052979 30.33537292 C17.48209842 34.07554109 17.16788104 36.17159998 15.12792969 39.35083008 C11.50397048 42.86991181 8.99172077 42.5257979 4.02734375 42.515625 C2.14015625 42.51949219 2.14015625 42.51949219 0.21484375 42.5234375 C-2.97265625 42.390625 -2.97265625 42.390625 -4.97265625 41.390625 C-4.64265625 39.740625 -4.31265625 38.090625 -3.97265625 36.390625 C-0.59247094 35.35056798 2.50537165 35.31058018 6.02734375 35.390625 C6.35734375 34.400625 6.68734375 33.410625 7.02734375 32.390625 C6.03734375 32.885625 6.03734375 32.885625 5.02734375 33.390625 C2.15234375 33.765625 2.15234375 33.765625 -0.97265625 33.390625 C-3.7133593 31.15361873 -4.84316097 29.30883288 -5.33886719 25.79394531 C-5.47583786 22.62920191 -5.4684918 19.49518062 -5.41015625 16.328125 C-5.41724609 15.23951172 -5.42433594 14.15089844 -5.43164062 13.02929688 C-5.3358591 1.05660576 -5.3358591 1.05660576 0 0 Z " fill="#FEFBFB" transform="translate(204.97265625,196.609375)"/>
<path d="M0 0 C2.47923801 -0.02685095 4.9581884 -0.04676547 7.4375 -0.0625 C8.14455078 -0.07087891 8.85160156 -0.07925781 9.58007812 -0.08789062 C11.38693559 -0.09653588 13.19387603 -0.05220011 15 0 C17.68615878 2.68615878 16.99698899 9.51874251 17.35717773 13.17871094 C17.55762063 15.20077692 17.76945965 17.22140713 17.98242188 19.2421875 C18.81164983 27.52629734 19.18369628 35.67598508 19 44 C16.36 44 13.72 44 11 44 C11 41.69 11 39.38 11 37 C9.02 37 7.04 37 5 37 C5 39.31 5 41.62 5 44 C2.03 44 -0.94 44 -4 44 C-3.29383733 34.21370099 -2.39799971 24.45124795 -1.4375 14.6875 C-1.29740458 13.25326707 -1.15742998 11.81902233 -1.01757812 10.38476562 C-0.67977224 6.92304043 -0.34035231 3.46147588 0 0 Z " fill="#FFF9F9" transform="translate(153,190)"/>
<path d="M0 0 C3.15883091 0.78970773 4.59105602 1.56285299 6.8125 3.9375 C8.60800078 8.56800202 8.23208546 13.09182224 8 18 C5.03 18 2.06 18 -1 18 C-1.33 15.03 -1.66 12.06 -2 9 C-2.66 9 -3.32 9 -4 9 C-4.33 17.91 -4.66 26.82 -5 36 C-3.68 36 -2.36 36 -1 36 C-1 32.37 -1 28.74 -1 25 C1.97 25 4.94 25 8 25 C8.6887148 36.82293733 8.6887148 36.82293733 6.125 40.6875 C3.8879197 43.12196974 3.02033497 43.87358682 -0.20703125 44.2734375 C-7.27310908 44.54887682 -7.27310908 44.54887682 -11.0625 41.6875 C-15.2733646 35.84662329 -14.26030062 29.11609755 -14.3125 22.1875 C-14.34150391 20.91583984 -14.37050781 19.64417969 -14.40039062 18.33398438 C-14.48012413 6.62542546 -14.48012413 6.62542546 -10 2 C-6.28424249 -0.47717167 -4.40013262 -0.30345742 0 0 Z " fill="#0B0303" transform="translate(197,236)"/>
<path d="M0 0 C2.46095499 1.62253203 4.17187996 2.77262253 6 5 C6.68115234 8.50512695 6.68115234 8.50512695 6.5859375 12.48828125 C6.57744781 13.19147995 6.56895813 13.89467865 6.56021118 14.6191864 C6.52678324 16.85189045 6.45154502 19.08089979 6.375 21.3125 C6.34488573 22.8313278 6.31751245 24.35021259 6.29296875 25.86914062 C6.22703363 29.58061534 6.1235945 33.28994673 6 37 C2 37 -2 37 -6 37 C-6.99 37.061875 -7.98 37.12375 -9 37.1875 C-12 37 -12 37 -13.8125 35.625 C-17.02731695 31.2257768 -16.51619107 26.24541219 -16 21 C-14.39077314 17.64161352 -13.13873254 16.48018842 -9.73046875 15.04296875 C-7.50187269 14.27436633 -5.27937043 13.59906531 -3 13 C-3.33 11.02 -3.66 9.04 -4 7 C-4.66 7 -5.32 7 -6 7 C-6.33 8.32 -6.66 9.64 -7 11 C-9.64 11 -12.28 11 -15 11 C-15.28027248 7.35645778 -15.44312908 4.822954 -13.6875 1.5625 C-9.40531717 -0.92714118 -4.80256629 -1.05919613 0 0 Z " fill="#070202" transform="translate(265,243)"/>
<path d="M0 0 C3.66666667 0 7.33333333 0 11 0 C12.11375 -0.103125 13.2275 -0.20625 14.375 -0.3125 C18 0 18 0 20.20214844 2.05151367 C22.47954897 5.78646291 22.46002722 8.13329213 22.390625 12.48828125 C22.38496521 13.19147995 22.37930542 13.89467865 22.37347412 14.6191864 C22.35119769 16.85100248 22.30102373 19.08117461 22.25 21.3125 C22.22992343 22.83135691 22.21167468 24.35023916 22.1953125 25.86914062 C22.15136357 29.57995545 22.08239921 33.2898171 22 37 C19.03 37 16.06 37 13 37 C13 27.1 13 17.2 13 7 C11.68 7 10.36 7 9 7 C9 16.9 9 26.8 9 37 C6.03 37 3.06 37 0 37 C0 24.79 0 12.58 0 0 Z " fill="#FFF8F8" transform="translate(175,197)"/>
<path d="M0 0 C2.93423195 1.79646854 4.47205355 2.9441071 6 6 C6.1393329 10.33603979 6.04254111 14.66080671 6 19 C1.71 19 -2.58 19 -7 19 C-7 22.63 -7 26.26 -7 30 C-5.68 30 -4.36 30 -3 30 C-3 27.69 -3 25.38 -3 23 C-0.03 23 2.94 23 6 23 C5.64412238 30.94793344 5.64412238 30.94793344 3.125 35.0625 C-1.48063905 37.91799621 -5.71821477 37.89521784 -11 37 C-14.16620095 34.81381363 -14.7896387 33.63108389 -16 30 C-16.28396542 26.04641804 -16.2775766 22.08764225 -16.3125 18.125 C-16.34150391 17.03574219 -16.37050781 15.94648438 -16.40039062 14.82421875 C-16.46436449 6.78319619 -16.46436449 6.78319619 -14.10546875 2.8046875 C-9.84533243 -0.84685792 -5.4176965 -0.6388793 0 0 Z " fill="#060202" transform="translate(341,243)"/>
<path d="M0 0 C1.37671875 -0.00193359 1.37671875 -0.00193359 2.78125 -0.00390625 C6.41089575 0.75226995 8.03263416 1.78505227 10.5 4.5625 C10.87398847 7.37489326 10.98293015 9.53842155 10.8125 12.3125 C10.78994141 13.00988281 10.76738281 13.70726562 10.74414062 14.42578125 C10.68547048 16.13894935 10.59579256 17.85100623 10.5 19.5625 C6.21 19.5625 1.92 19.5625 -2.5 19.5625 C-2.17 22.8625 -1.84 26.1625 -1.5 29.5625 C-0.18 29.8925 1.14 30.2225 2.5 30.5625 C2.5 28.2525 2.5 25.9425 2.5 23.5625 C5.14 23.5625 7.78 23.5625 10.5 23.5625 C10.9390692 32.19752756 10.9390692 32.19752756 7.5 36.5625 C3.5696314 38.5276843 -1.2147185 38.03159886 -5.5 37.5625 C-8.66620095 35.37631363 -9.2896387 34.19358389 -10.5 30.5625 C-10.81085957 26.44262692 -10.8238376 22.31770089 -10.875 18.1875 C-10.91238281 17.05054688 -10.94976562 15.91359375 -10.98828125 14.7421875 C-11.07616405 6.42261587 -11.07616405 6.42261587 -8.3203125 2.30859375 C-5.22611736 0.39293554 -3.60964544 -0.08618535 0 0 Z " fill="#040101" transform="translate(235.5,242.4375)"/>
<path d="M0 0 C2.97 0 5.94 0 9 0 C9.66 6.27 10.32 12.54 11 19 C11.66 12.73 12.32 6.46 13 0 C15.97 0 18.94 0 22 0 C20.61064588 9.24910113 19.10952497 18.4741889 17.5 27.6875 C17.28730469 28.94755859 17.07460938 30.20761719 16.85546875 31.50585938 C16.64535156 32.70404297 16.43523437 33.90222656 16.21875 35.13671875 C16.03248047 36.21655029 15.84621094 37.29638184 15.65429688 38.40893555 C15 41 15 41 13 43 C9.9609375 43.1953125 9.9609375 43.1953125 6.375 43.125 C4.59222656 43.09792969 4.59222656 43.09792969 2.7734375 43.0703125 C1.40058594 43.03550781 1.40058594 43.03550781 0 43 C0 41.02 0 39.04 0 37 C1.65 37 3.3 37 5 37 C4.80664062 35.94683594 4.61328125 34.89367187 4.4140625 33.80859375 C-0.20406527 8.35097879 -0.20406527 8.35097879 0 0 Z " fill="#FFF8F8" transform="translate(242,197)"/>
<path d="M0 0 C2.97 0 5.94 0 9 0 C9.66 4.62 10.32 9.24 11 14 C11.66 9.38 12.32 4.76 13 0 C15.97 0 18.94 0 22 0 C20.52804784 12.43412217 18.31020371 24.69760452 16 37 C12.7 37 9.4 37 6 37 C4.28021643 30.50820437 3.02286719 23.99011608 1.875 17.375 C1.69324219 16.364375 1.51148438 15.35375 1.32421875 14.3125 C0.48279884 9.49173327 -0.25166051 4.91576868 0 0 Z " fill="#070202" transform="translate(301,243)"/>
<path d="M0 0 C2.64 0 5.28 0 8 0 C8 2.31 8 4.62 8 7 C8.99 7 9.98 7 11 7 C11 9.31 11 11.62 11 14 C10.01 14 9.02 14 8 14 C8.33 21.26 8.66 28.52 9 36 C9.66 36.33 10.32 36.66 11 37 C11 38.98 11 40.96 11 43 C9.54207116 43.05399736 8.08357288 43.09279177 6.625 43.125 C5.81289063 43.14820313 5.00078125 43.17140625 4.1640625 43.1953125 C2 43 2 43 0 41 C-0.22705078 38.29443359 -0.22705078 38.29443359 -0.1953125 34.8984375 C-0.18886719 33.68671875 -0.18242187 32.475 -0.17578125 31.2265625 C-0.15902344 29.95554687 -0.14226562 28.68453125 -0.125 27.375 C-0.11597656 26.09625 -0.10695313 24.8175 -0.09765625 23.5 C-0.07402303 20.33314833 -0.04107629 17.16666576 0 14 C-0.99 14 -1.98 14 -3 14 C-3 11.69 -3 9.38 -3 7 C-2.01 7 -1.02 7 0 7 C0 4.69 0 2.38 0 0 Z " fill="#030101" transform="translate(276,237)"/>
<path d="M0 0 C5 0 10 0 15 0 C15 2.31 15 4.62 15 7 C13.35 7.33 11.7 7.66 10 8 C9.67 17.57 9.34 27.14 9 37 C6.03 37 3.06 37 0 37 C0 24.79 0 12.58 0 0 Z " fill="#FFFAFA" transform="translate(226,197)"/>
<path d="M0 0 C0 2.64 0 5.28 0 8 C-2.31 8.33 -4.62 8.66 -7 9 C-7 18.57 -7 28.14 -7 38 C-9.64 38 -12.28 38 -15 38 C-15 25.79 -15 13.58 -15 1 C-12.36 1 -9.72 1 -7 1 C-6.67 1.66 -6.34 2.32 -6 3 C-5.38125 2.505 -4.7625 2.01 -4.125 1.5 C-2 0 -2 0 0 0 Z " fill="#030101" transform="translate(223,242)"/>
<path d="M0 0 C2.97 0 5.94 0 9 0 C9 12.21 9 24.42 9 37 C6.03 37 3.06 37 0 37 C0 24.79 0 12.58 0 0 Z " fill="#0B0404" transform="translate(290,243)"/>
<path d="M0 0 C3.11199254 1.99167522 4.61304528 3.27090501 5.43359375 6.9375 C5.67357753 10.77724044 5.23135114 12.63754988 3.125 15.9375 C0.24809494 18.72979021 -1.45771967 19.20581514 -5.375 19.375 C-8.76657221 19.30946237 -9.73912363 19.19088515 -12.5625 17.125 C-14.60661245 12.68127728 -14.76220779 8.80839597 -14 4 C-11.17509855 -1.39299367 -5.41162585 -0.98790585 0 0 Z " fill="#160D0D" transform="translate(363,261)"/>
<path d="M0 0 C2.6875 1.75 2.6875 1.75 4 4 C3.75 6.25 3.75 6.25 3 8 C-2.3793497 8.84937101 -6.57741008 8.86761439 -12 8 C-12.99 8.495 -12.99 8.495 -14 9 C-14.34098943 5.93109509 -14.21961817 4.36935783 -12.625 1.6875 C-8.5862053 -0.90886802 -4.6657477 -0.77375584 0 0 Z " fill="#0A0404" transform="translate(363,261)"/>
<path d="M0 0 C0.99 0.33 1.98 0.66 3 1 C3 6.94 3 12.88 3 19 C1.68 19 0.36 19 -1 19 C-1.02683987 16.02077407 -1.04676037 13.04178705 -1.0625 10.0625 C-1.07087891 9.21236328 -1.07925781 8.36222656 -1.08789062 7.48632812 C-1.09111328 6.67744141 -1.09433594 5.86855469 -1.09765625 5.03515625 C-1.10289307 4.2862915 -1.10812988 3.53742676 -1.11352539 2.76586914 C-1 1 -1 1 0 0 Z " fill="#FF5C5C" transform="translate(210,203)"/>
<path d="M0 0 C1.03125 0.185625 2.0625 0.37125 3.125 0.5625 C6.76148442 0.97307082 9.45437009 0.778309 13 0 C12.34 1.65 11.68 3.3 11 5 C9.35 5 7.7 5 6 5 C7.32 6.32 8.64 7.64 10 9 C7.36 9 4.72 9 2 9 C2 6.66666667 2 4.33333333 2 2 C1.34 2 0.68 2 0 2 C0 1.34 0 0.68 0 0 Z " fill="#818181" transform="translate(352,268)"/>
<path d="M0 0 C2.97 0 5.94 0 9 0 C9 2.31 9 4.62 9 7 C6.03 7 3.06 7 0 7 C0 4.69 0 2.38 0 0 Z " fill="#280D0D" transform="translate(290,234)"/>
<path d="M0 0 C1.61635488 2.86973884 2.2733418 5.04464203 2.4140625 8.328125 C2.45273438 9.12734375 2.49140625 9.9265625 2.53125 10.75 C2.5621875 11.575 2.593125 12.4 2.625 13.25 C2.66367188 14.09046875 2.70234375 14.9309375 2.7421875 15.796875 C2.83615836 17.86423382 2.91915564 19.93208627 3 22 C1.68 22 0.36 22 -1 22 C-1.14715692 14.6094524 -0.70776992 7.35575165 0 0 Z " fill="#FF7777" transform="translate(160,198)"/>
<path d="M0 0 C0 4.29 0 8.58 0 13 C-1.32 13 -2.64 13 -4 13 C-4.08121924 11.39667209 -4.13929134 9.79215974 -4.1875 8.1875 C-4.22230469 7.29417969 -4.25710938 6.40085937 -4.29296875 5.48046875 C-4 3 -4 3 -2.55078125 1.17578125 C-1 0 -1 0 0 0 Z " fill="#E94F4F" transform="translate(262,260)"/>
<path d="M0 0 C0.99 0.33 1.98 0.66 3 1 C3 3.64 3 6.28 3 9 C1.68 9 0.36 9 -1 9 C-1.09765625 2.84765625 -1.09765625 2.84765625 -1 1 C-0.67 0.67 -0.34 0.34 0 0 Z " fill="#F05252" transform="translate(335,249)"/>
<path d="M0 0 C0.99 0.33 1.98 0.66 3 1 C3 3.64 3 6.28 3 9 C1.68 9 0.36 9 -1 9 C-1.09765625 2.84765625 -1.09765625 2.84765625 -1 1 C-0.67 0.67 -0.34 0.34 0 0 Z " fill="#E34D4D" transform="translate(235,249)"/>
<path d="M0 0 C0.33 0.99 0.66 1.98 1 3 C0.34 3.66 -0.32 4.32 -1 5 C-3.1640625 4.9765625 -3.1640625 4.9765625 -5.625 4.625 C-6.44226563 4.51414063 -7.25953125 4.40328125 -8.1015625 4.2890625 C-8.72804687 4.19367188 -9.35453125 4.09828125 -10 4 C-7.80202597 1.80202597 -6.82453855 1.54102483 -3.875 0.875 C-2.59625 0.58625 -1.3175 0.2975 0 0 Z " fill="#FF6565" transform="translate(212,228)"/>
<path d="M0 0 C3.625 0.375 3.625 0.375 7 1 C6.67 1.66 6.34 2.32 6 3 C3.36 2.67 0.72 2.34 -2 2 C-1.34 1.34 -0.68 0.68 0 0 Z " fill="#080303" transform="translate(356,277)"/>
<path d="M0 0 C1.98 0.495 1.98 0.495 4 1 C3.34 2.32 2.68 3.64 2 5 C1.01 5 0.02 5 -1 5 C-0.67 3.35 -0.34 1.7 0 0 Z " fill="#AAAAAA" transform="translate(361,268)"/>
</svg>
